# xmcd CD database file
#
# Track frame offsets:
#	217
#	12160
#	31397
#	47325
#	64325
#	72510
#	99805
#	126920
#	142837
#	156650
#	167622
#	185332
#
# Disc length: 2704 seconds
#
# Revision: 2
# Processed by: cddbd v1.5.2PL0 Copyright (c) Steve Scherf et al.
# Submitted via: CDex 1.70beta2
#
DISCID=9d0a8e0c
DTITLE=The Band Of...Blacky Ranchette - Sage Advice
DYEAR=1990
DGENRE=Alt Country
TTITLE0=Loving Cup
TTITLE1=Burning Desire
TTITLE2=Trouble Man
TTITLE3=Dreamlike, N.M.
TTITLE4=Indiosa
TTITLE5=Wild Dog Waltz
TTITLE6=Sage Advice
TTITLE7=Ouside An Angel's Reach (3 6ixes)
TTITLE8=Shards Of Time
TTITLE9=Still Too Far
TTITLE10=Blanket Of Stars (Loving Cup: Reprise)
TTITLE11=You Are My Sunshine
EXTD=YEAR: 1990
EXTT0=
EXTT1=
EXTT2=
EXTT3=
EXTT4=
EXTT5=
EXTT6=
EXTT7=
EXTT8=
EXTT9=
EXTT10=
EXTT11=
PLAYORDER=
